<?xml version="1.0" encoding="UTF-8"?> <!-- Creator: CorelDRAW 2017 --> <svg xmlns="http://www.w3.org/2000/svg" xmlns:xlink="http://www.w3.org/1999/xlink" xml:space="preserve" width="1080px" height="1080px" style="shape-rendering:geometricPrecision; text-rendering:geometricPrecision; image-rendering:optimizeQuality; fill-rule:evenodd; clip-rule:evenodd" viewBox="0 0 1080 1080"> <defs> <style type="text/css"> <![CDATA[ .fil2 {fill:none} .fil1 {fill:#D40031;fill-rule:nonzero} .fil0 {fill:#D50032;fill-rule:nonzero} ]]> </style> </defs> <g id="Слой_x0020_1"> <metadata id="CorelCorpID_0Corel-Layer"></metadata> <polygon class="fil0" points="200.35,468.26 223.46,468.26 276.84,538.39 276.84,468.26 301.57,468.26 301.57,582.17 280.26,582.17 225.09,509.75 225.09,582.17 200.35,582.17 "></polygon> <path class="fil0" d="M367.48 467.44l23.11 0 48.82 114.73 -26.2 0 -10.42 -25.55 -48.16 0 -10.42 25.55 -25.55 0 48.82 -114.73zm26.36 67.05l0 0 -15.13 -36.94 -15.13 36.94 30.26 0z"></path> <path class="fil0" d="M456.5 468.26l52.07 0c14.49,0 25.71,4.07 33.2,11.55 6.35,6.35 9.76,15.3 9.76,26.36 0,18.39 -9.92,29.95 -24.41,35.32l27.83 40.68 -29.29 0 -24.74 -36.45 -19.36 0 0 36.45 -25.06 0 0 -113.91zm50.44 55.33l0 0c12.21,0 19.21,-6.51 19.21,-16.44 0,-10.74 -7.49,-16.27 -19.69,-16.27l-24.9 0 0 32.71 25.38 0z"></path> <polygon class="fil0" points="604.75,524.24 551.12,444.08 580.41,444.08 619.88,505.2 643.97,468.26 672.44,468.26 634.37,523.91 708.28,633.18 678.99,633.18 619.23,543.11 593.52,582.17 565.04,582.17 "></polygon> <path class="fil0" d="M679.12 525.21c0,-32.38 25.55,-58.91 60.7,-58.91 35.15,0 60.37,26.2 60.37,58.91 0,32.39 -25.55,58.91 -60.7,58.91 -35.15,0 -60.37,-26.2 -60.37,-58.91zm94.87 0l0 0c0,-19.52 -14.32,-35.8 -34.5,-35.8 -20.18,0 -34.17,15.95 -34.17,35.8 0,19.53 14.32,35.8 34.5,35.8 20.18,0 34.17,-15.94 34.17,-35.8z"></path> <polygon class="fil0" points="812.89,563.13 875.54,490.23 814.84,490.23 814.84,468.26 907.76,468.26 907.76,487.3 845.11,560.2 907.76,560.2 907.76,582.17 812.89,582.17 "></polygon> <g id="_2174448152912"> <path class="fil1" d="M200.35 616.89l0 -21.3 6.51 0 0 21.04c0,6.87 3.54,10.57 9.35,10.57 5.77,0 9.31,-3.49 9.31,-10.31l0 -21.3 6.5 0 0 20.98c0,11.05 -6.24,16.61 -15.91,16.61 -9.62,0 -15.76,-5.56 -15.76,-16.29z"></path> <polygon class="fil1" points="253.38,595.59 259.4,595.59 279.23,621.17 279.23,595.59 285.63,595.59 285.63,632.59 280.18,632.59 259.78,606.27 259.78,632.59 253.38,632.59 "></polygon> <polygon class="fil1" points="307.93,595.59 314.44,595.59 314.44,632.59 307.93,632.59 "></polygon> <polygon class="fil1" points="333.57,595.59 340.76,595.59 351.92,624.03 363.02,595.59 370.05,595.59 354.67,632.86 348.96,632.86 "></polygon> <polygon class="fil1" points="388.82,595.59 416.25,595.59 416.25,601.4 395.32,601.4 395.32,611.02 413.88,611.02 413.88,616.84 395.32,616.84 395.32,626.78 416.52,626.78 416.52,632.59 388.82,632.59 "></polygon> <path class="fil1" d="M436.66 595.59l16.49 0c8.68,0 13.75,4.65 13.75,11.79 0,6.08 -3.65,9.72 -8.83,11.2l9.99 14.01 -7.66 0 -9.2 -12.9 -8.04 0 0 12.9 -6.5 0 0 -37zm16.02 18.34l0 0c4.65,0 7.61,-2.43 7.61,-6.29 0,-3.97 -2.85,-6.13 -7.66,-6.13l-9.47 0 0 12.42 9.52 0z"></path> <path class="fil1" d="M484.82 627.2l3.91 -4.65c3.54,3.07 7.08,4.81 11.69,4.81 4.01,0 6.55,-1.85 6.55,-4.76 0,-2.64 -1.48,-4.07 -8.35,-5.71 -7.88,-1.85 -12.32,-4.17 -12.32,-11.1 0,-6.34 5.29,-10.73 12.63,-10.73 5.4,0 9.68,1.64 13.43,4.65l-3.49 4.92c-3.33,-2.49 -6.66,-3.81 -10.04,-3.81 -3.81,0 -6.03,1.96 -6.03,4.49 0,2.86 1.69,4.13 8.78,5.82 7.82,1.9 11.89,4.71 11.89,10.94 0,6.93 -5.44,11.05 -13.21,11.05 -5.66,0 -11,-1.95 -15.44,-5.92z"></path> <polygon class="fil1" points="533.93,595.59 540.43,595.59 540.43,632.59 533.93,632.59 "></polygon> <polygon class="fil1" points="571.83,601.61 560.1,601.61 560.1,595.59 590.13,595.59 590.13,601.61 578.39,601.61 578.39,632.59 571.83,632.59 "></polygon> <polygon class="fil1" points="620.31,618 605.61,595.59 613.28,595.59 623.64,611.98 634.11,595.59 641.56,595.59 626.87,617.84 626.87,632.59 620.31,632.59 "></polygon> </g> <rect class="fil2" x="86.51" y="330.17" width="935.1" height="416.92"></rect> </g> </svg> 